<?xml version="1.0" encoding="UTF-8"?>
<svg id="Calque_1" xmlns="http://www.w3.org/2000/svg" version="1.1" viewBox="0 0 566.93 566.93">
  <!-- Generator: Adobe Illustrator 29.7.0, SVG Export Plug-In . SVG Version: 2.1.1 Build 138)  -->
  <defs>
    <style>
      .st0 {
        fill: #1f4d33;
      }

      .st1 {
        opacity: .2;
      }

      .st2 {
        fill: #065359;
      }
    </style>
  </defs>
  <g class="st1">
    <rect class="st2" x="14.13" y="14.2" width="538.58" height="538.58" rx="122.47" ry="122.47"/>
  </g>
  <g>
    <g>
      <path class="st2" d="M409.09,275.04l-51.37-40.38v-24.11c0-3.17-2.57-5.74-5.74-5.74h-23.89c-2.06,0-3.87,1.09-4.88,2.72l-36.25-28.5c-2.08-1.64-5.01-1.64-7.09,0l-122.12,96.01c-1.92,1.51-2.68,4.08-1.88,6.39.8,2.31,2.98,3.86,5.42,3.86h25.98v98.17c0,3.17,2.57,5.74,5.74,5.74h180.81c3.17,0,5.74-2.57,5.74-5.74v-98.17h25.98c2.45,0,4.62-1.55,5.42-3.86.8-2.31.05-4.88-1.88-6.39ZM373.83,273.81c-3.17,0-5.74,2.57-5.74,5.74v98.17h-169.34v-98.17c0-3.17-2.57-5.74-5.74-5.74h-15.13l105.54-82.97,41.13,32.34c1.73,1.36,4.08,1.61,6.05.65,1.98-.96,3.23-2.96,3.23-5.16v-2.38h12.41v21.16c0,1.76.81,3.42,2.19,4.51l40.52,31.86h-15.13Z"/>
      <path class="st0" d="M373.83,393.33h-180.81c-5.45,0-9.88-4.43-9.88-9.87v-94.03h-21.84c-4.21,0-7.97-2.67-9.34-6.65-1.37-3.97-.08-8.39,3.23-11l122.13-96.01c3.58-2.84,8.63-2.84,12.21,0l33.46,26.3c1.51-.91,3.27-1.42,5.11-1.42h23.89c5.44,0,9.87,4.43,9.87,9.88v22.09l49.78,39.13c3.32,2.6,4.61,7.03,3.23,11-1.36,3.97-5.11,6.65-9.33,6.65h-21.84v94.03c0,5.44-4.43,9.87-9.88,9.87ZM283.42,181.94c-.35,0-.69.11-.98.34l-122.14,96.01c-.53.42-.74,1.13-.52,1.78.22.64.82,1.07,1.51,1.07h25.98c2.29,0,4.14,1.85,4.14,4.14v98.17c0,.88.72,1.59,1.6,1.59h180.81c.88,0,1.6-.71,1.6-1.59v-98.17c0-2.29,1.85-4.14,4.14-4.14h25.98c.68,0,1.29-.43,1.5-1.06.23-.66.02-1.37-.52-1.79h0l-51.36-40.38c-1-.79-1.59-1.99-1.59-3.26v-24.11c0-.88-.71-1.6-1.59-1.6h-23.89c-.56,0-1.07.28-1.37.76-.62,1-1.64,1.69-2.8,1.89-1.16.19-2.36-.09-3.28-.82l-36.25-28.49c-.3-.23-.65-.35-.99-.35ZM368.09,381.85h-169.33c-2.29,0-4.14-1.85-4.14-4.14v-98.16c0-.88-.71-1.6-1.59-1.6h-15.14c-1.76,0-3.33-1.12-3.91-2.79-.57-1.67-.03-3.52,1.36-4.61l105.54-82.97c1.49-1.18,3.62-1.18,5.11,0l41.13,32.33c.49.39,1.16.44,1.71.19.53-.26.88-.82.88-1.44v-2.38c0-2.29,1.85-4.14,4.14-4.14h12.41c2.29,0,4.14,1.85,4.14,4.14v21.16c0,.49.23.95.61,1.25l40.52,31.86c1.39,1.08,1.93,2.94,1.36,4.6-.58,1.67-2.15,2.79-3.91,2.79h-15.13c-.88,0-1.6.72-1.6,1.6v98.16c0,2.29-1.85,4.14-4.14,4.14ZM202.89,373.57h161.05v-94.02c0-5.45,4.43-9.88,9.88-9.88h3.16l-31.1-24.46c-2.36-1.84-3.78-4.75-3.78-7.76v-17.02h-4.29c-.56,3.06-2.56,5.74-5.39,7.13-3.45,1.66-7.45,1.22-10.42-1.12l-38.58-30.33-93.57,73.56h3.17c5.44,0,9.87,4.43,9.87,9.88v94.02Z"/>
    </g>
    <g>
      <path class="st2" d="M316.2,280.65h-65.55c-3.17,0-5.74,2.57-5.74,5.74v65.42c0,3.17,2.57,5.74,5.74,5.74h65.55c3.17,0,5.74-2.57,5.74-5.74v-65.42c0-3.17-2.57-5.74-5.74-5.74ZM310.46,313.36h-21.3v-21.24h21.3v21.24ZM277.68,292.13v21.24h-21.3v-21.24h21.3ZM256.38,324.84h21.3v21.24h-21.3v-21.24ZM289.16,346.07v-21.24h21.3v21.24h-21.3Z"/>
      <path class="st0" d="M316.2,361.69h-65.56c-5.44,0-9.87-4.43-9.87-9.87v-65.43c0-5.45,4.43-9.88,9.87-9.88h65.56c5.45,0,9.88,4.43,9.88,9.88v65.43c0,5.44-4.43,9.87-9.88,9.87ZM250.64,284.79c-.88,0-1.59.72-1.59,1.6v65.43c0,.88.71,1.59,1.59,1.59h65.56c.88,0,1.6-.71,1.6-1.59v-65.43c0-.88-.72-1.6-1.6-1.6h-65.56ZM310.46,350.22h-21.3c-2.29,0-4.14-1.85-4.14-4.14v-21.24c0-2.29,1.85-4.14,4.14-4.14h21.3c2.29,0,4.14,1.85,4.14,4.14v21.24c0,2.29-1.85,4.14-4.14,4.14ZM293.3,341.93h13.02v-12.96h-13.02v12.96ZM277.68,350.22h-21.3c-2.29,0-4.14-1.85-4.14-4.14v-21.24c0-2.29,1.85-4.14,4.14-4.14h21.3c2.29,0,4.14,1.85,4.14,4.14v21.24c0,2.29-1.85,4.14-4.14,4.14ZM260.52,341.93h13.02v-12.96h-13.02v12.96ZM310.46,317.5h-21.3c-2.29,0-4.14-1.85-4.14-4.14v-21.24c0-2.29,1.85-4.14,4.14-4.14h21.3c2.29,0,4.14,1.85,4.14,4.14v21.24c0,2.29-1.85,4.14-4.14,4.14ZM293.3,309.22h13.02v-12.96h-13.02v12.96ZM277.68,317.5h-21.3c-2.29,0-4.14-1.85-4.14-4.14v-21.24c0-2.29,1.85-4.14,4.14-4.14h21.3c2.29,0,4.14,1.85,4.14,4.14v21.24c0,2.29-1.85,4.14-4.14,4.14ZM260.52,309.22h13.02v-12.96h-13.02v12.96Z"/>
    </g>
  </g>
</svg>