<?xml version="1.0" encoding="UTF-8"?>
<svg id="Calque_1" xmlns="http://www.w3.org/2000/svg" version="1.1" viewBox="0 0 566.93 566.93">
  <!-- Generator: Adobe Illustrator 29.7.0, SVG Export Plug-In . SVG Version: 2.1.1 Build 138)  -->
  <defs>
    <style>
      .st0 {
        fill: #2f703f;
      }

      .st1 {
        opacity: .2;
      }
    </style>
  </defs>
  <g class="st1">
    <rect class="st0" x="14.13" y="14.2" width="538.58" height="538.58" rx="122.47" ry="122.47"/>
  </g>
  <g>
    <g>
      <g>
        <path class="st0" d="M281.76,381.32c-.39,0-.78-.1-1.13-.29-.32-.17-31.97-17.45-60.65-44.67-38.31-36.36-53.98-73.91-45.3-108.58,4.31-20.22,20.37-42.85,46.46-47.61.23-.06,34.6-7.76,60.61,21.7,26.02-29.46,60.38-21.76,60.73-21.68,25.95,4.74,42.01,27.36,46.36,47.67,4.39,17.57,2.63,35.89-5.27,54.39-.52,1.21-1.92,1.77-3.12,1.25-1.21-.52-1.77-1.91-1.25-3.12,7.48-17.52,9.17-34.82,5.02-51.44-4.03-18.84-18.79-39.72-42.7-44.09-1.48-.34-33.64-7.43-57.92,22.2-.9,1.11-2.78,1.11-3.68,0-24.28-29.63-56.45-22.54-57.8-22.22-24.05,4.4-38.8,25.28-42.8,44.03-18.99,75.83,90.07,140.32,102.45,147.35,1.1-.62,2.96-1.69,5.41-3.17,1.12-.68,2.59-.32,3.27.81.68,1.12.32,2.59-.81,3.27-4.18,2.52-6.64,3.85-6.75,3.91-.35.19-.74.28-1.13.28Z"/>
        <path class="st0" d="M281.76,385.46c-1.08,0-2.14-.27-3.08-.78-3.47-1.91-33.81-18.98-61.55-45.31-39.47-37.46-55.53-76.39-46.46-112.58,4.58-21.47,21.76-45.57,49.74-50.68,0,0,34.06-7.78,61.36,19.72,26.95-27.17,60.21-19.99,61.65-19.65,27.7,5.05,44.85,29.18,49.49,50.84,4.59,18.36,2.74,37.54-5.52,56.88-1.43,3.32-5.27,4.88-8.56,3.43-3.31-1.42-4.84-5.26-3.42-8.56,7.12-16.67,8.73-33.09,4.8-48.81-3.77-17.58-17.4-36.99-39.43-41.02-1.42-.32-31.47-6.71-53.98,20.75-1.2,1.48-3.03,2.34-5.02,2.35h-.02c-1.99,0-3.83-.86-5.05-2.35-22.52-27.49-52.42-21.08-53.68-20.81-22.3,4.08-35.95,23.46-39.66,40.87-17.52,69.96,79.45,130.61,98.41,141.71.91-.53,2.01-1.18,3.27-1.93,1.48-.89,3.23-1.16,4.93-.74,1.7.42,3.13,1.47,4.03,2.98.9,1.48,1.16,3.23.74,4.93-.41,1.68-1.46,3.11-2.95,4-4.29,2.59-6.83,3.96-6.93,4.02-.95.51-2.02.78-3.09.78ZM289.33,376.59s0,0-.02.02c0,0,.02,0,.02-.02Z"/>
      </g>
      <g>
        <path class="st0" d="M198.86,269.75c-.99,0-1.92-.63-2.26-1.62-4.1-12.17-4.75-24.06-1.93-35.33l.15-.66c1.98-9.26,7.42-18.36,14.55-24.3,1.01-.84,2.51-.7,3.35.31.84,1.01.7,2.51-.31,3.35-6.34,5.28-11.18,13.38-12.95,21.67l-.17.74c-2.61,10.42-2,21.41,1.81,32.7.42,1.25-.25,2.6-1.49,3.02-.25.08-.51.12-.76.12Z"/>
        <path class="st0" d="M198.86,273.89c-2.79,0-5.27-1.78-6.18-4.42-4.36-12.94-5.04-25.61-2.02-37.67,2.28-10.66,8.24-20.61,16.06-27.13,1.34-1.12,3.05-1.63,4.77-1.49,1.74.16,3.31.99,4.42,2.33,1.11,1.33,1.63,3.02,1.48,4.76-.16,1.73-.99,3.3-2.33,4.42-5.64,4.7-9.96,11.94-11.54,19.35-.02.05-.19.84-.2.89-2.42,9.62-1.84,19.83,1.71,30.36,1.15,3.4-.69,7.12-4.09,8.27-.43.15-1.63.34-2.09.34ZM200.53,266.81h.08-.08Z"/>
      </g>
    </g>
    <g>
      <g>
        <path class="st0" d="M341.63,387.76c-29.15,0-52.87-23.72-52.87-52.87s23.72-52.87,52.87-52.87,52.87,23.72,52.87,52.87-23.72,52.87-52.87,52.87ZM341.63,286.79c-26.53,0-48.11,21.58-48.11,48.11s21.58,48.11,48.11,48.11,48.11-21.58,48.11-48.11-21.58-48.11-48.11-48.11Z"/>
        <path class="st0" d="M341.63,391.91c-31.44,0-57.01-25.57-57.01-57.01s25.57-57.01,57.01-57.01,57.01,25.57,57.01,57.01-25.57,57.01-57.01,57.01ZM341.63,290.93c-24.24,0-43.96,19.73-43.96,43.97s19.73,43.96,43.96,43.96,43.97-19.73,43.97-43.96-19.73-43.97-43.97-43.97Z"/>
      </g>
      <g>
        <path class="st0" d="M336.14,351.57h0c-.63,0-1.24-.25-1.68-.7l-17.61-17.61c-.93-.93-.93-2.43,0-3.36.93-.93,2.43-.93,3.36,0l15.92,15.93,26.9-26.9c.93-.93,2.43-.93,3.36,0,.93.93.93,2.43,0,3.36l-28.58,28.58c-.45.45-1.05.7-1.68.7Z"/>
        <path class="st0" d="M336.14,355.71c-1.71,0-3.4-.7-4.61-1.91l-17.61-17.61c-1.23-1.23-1.91-2.87-1.91-4.61s.68-3.38,1.91-4.61c2.54-2.54,6.68-2.54,9.22,0l13,13,23.97-23.97c2.54-2.54,6.68-2.54,9.22,0,1.23,1.23,1.91,2.87,1.91,4.61s-.68,3.38-1.91,4.61l-28.58,28.58c-1.21,1.21-2.9,1.91-4.61,1.91Z"/>
      </g>
    </g>
  </g>
</svg>