<?xml version="1.0" encoding="UTF-8"?>
<svg id="Calque_1" xmlns="http://www.w3.org/2000/svg" version="1.1" viewBox="0 0 566.93 566.93">
  <!-- Generator: Adobe Illustrator 29.7.0, SVG Export Plug-In . SVG Version: 2.1.1 Build 138)  -->
  <defs>
    <style>
      .st0 {
        fill: #e76f51;
      }

      .st1 {
        opacity: .2;
      }
    </style>
  </defs>
  <g class="st1">
    <rect class="st0" x="14.13" y="14.2" width="538.58" height="538.58" rx="122.47" ry="122.47"/>
  </g>
  <g>
    <g>
      <g>
        <g>
          <path class="st0" d="M253.51,389.86c-17.02,0-30.87-13.85-30.87-30.87v-13.01c0-1.27,1.03-2.29,2.29-2.29s2.29,1.03,2.29,2.29v13.01c0,14.49,11.79,26.29,26.29,26.29s26.29-11.79,26.29-26.29v-153.22c0-13.27-10.79-24.06-24.06-24.06s-24.06,10.79-24.06,24.06v.94c0,1.27-1.03,2.29-2.29,2.29s-2.29-1.03-2.29-2.29v-.94c0-15.79,12.85-28.64,28.64-28.64s28.64,12.85,28.64,28.64v153.22c0,17.02-13.85,30.87-30.87,30.87Z"/>
          <path class="st0" d="M253.51,394c-19.3,0-35.01-15.71-35.01-35.01v-13c0-3.54,2.88-6.43,6.43-6.43s6.43,2.89,6.43,6.43v13c0,12.21,9.94,22.15,22.14,22.15s22.15-9.94,22.15-22.15v-153.22c0-10.98-8.94-19.92-19.92-19.92s-19.92,8.94-19.92,19.92v.94c0,3.54-2.89,6.43-6.43,6.43s-6.43-2.89-6.43-6.43v-.94c0-18.08,14.71-32.78,32.78-32.78s32.79,14.7,32.79,32.78v153.22c0,19.3-15.71,35.01-35.01,35.01Z"/>
        </g>
        <g>
          <path class="st0" d="M220.09,359.62c-18.7,0-33.92-13.83-33.92-30.83s15.21-30.83,33.92-30.83c1.27,0,2.29,1.03,2.29,2.29s-1.03,2.29-2.29,2.29c-16.18,0-29.33,11.78-29.33,26.25s13.16,26.25,29.33,26.25c1.5,0,3.01-.1,4.49-.31,1.25-.18,2.41.7,2.58,1.96.17,1.25-.7,2.41-1.96,2.58-1.68.23-3.4.35-5.11.35Z"/>
          <path class="st0" d="M220.09,363.76c-20.98,0-38.06-15.69-38.06-34.97s17.07-34.97,38.06-34.97c3.55,0,6.43,2.89,6.43,6.43s-2.88,6.43-6.43,6.43c-13.89,0-25.2,9.92-25.2,22.11s11.3,22.11,25.2,22.11c1.31,0,2.64-.09,3.93-.27,1.69-.26,3.38.19,4.75,1.24,1.38,1.04,2.26,2.56,2.5,4.26.23,1.69-.21,3.39-1.25,4.76-1.04,1.37-2.55,2.26-4.26,2.48-1.85.26-3.76.39-5.67.39ZM225.17,358.83h-.02.02ZM224.63,355.17h-.01.01Z"/>
        </g>
        <g>
          <path class="st0" d="M188.79,326.98c-.39,0-.79-.1-1.15-.31-14.3-8.37-23.18-24.91-23.18-43.17,0-26.77,19.18-48.55,42.76-48.55,1,0,2.01.04,3,.12,1.26.1,2.2,1.2,2.1,2.46-.1,1.26-1.2,2.22-2.46,2.1-.87-.07-1.76-.1-2.64-.1-21.05,0-38.18,19.72-38.18,43.97,0,16.64,8.01,31.67,20.91,39.22,1.09.64,1.46,2.04.82,3.13-.43.73-1.19,1.13-1.98,1.13Z"/>
          <path class="st0" d="M188.79,331.12c-1.12,0-2.24-.3-3.23-.87-15.58-9.12-25.25-27.04-25.25-46.75,0-29.05,21.04-52.69,46.91-52.69,1.11,0,2.24.05,3.34.14,1.7.13,3.26.92,4.38,2.23,1.12,1.3,1.66,2.97,1.52,4.68-.14,1.73-.95,3.3-2.27,4.42-1.31,1.1-2.97,1.61-4.69,1.48-.71-.05-1.49-.09-2.27-.09-18.77,0-34.04,17.87-34.04,39.83,0,15.17,7.23,28.83,18.86,35.64,1.48.87,2.54,2.26,2.98,3.93.43,1.67.19,3.4-.68,4.88-1.14,1.96-3.27,3.18-5.54,3.18ZM189.72,323.09h.08-.08ZM209.89,239.2h.01-.01ZM210.12,235.5h.05-.05Z"/>
        </g>
        <g>
          <path class="st0" d="M197.53,240.87c-.6,0-1.21-.24-1.66-.71-3.65-3.83-5.58-8.33-5.58-13,0-12.79,14.69-23.19,32.76-23.19,7.69,0,15.15,1.9,21.01,5.36,1.09.64,1.45,2.05.81,3.14-.64,1.09-2.04,1.45-3.14.81-5.17-3.05-11.8-4.73-18.68-4.73-15.54,0-28.18,8.35-28.18,18.61,0,3.48,1.49,6.88,4.32,9.84.87.92.84,2.36-.08,3.24-.44.42-1.01.63-1.58.63Z"/>
          <path class="st0" d="M197.53,245.01c-1.75,0-3.45-.72-4.65-1.98-4.4-4.63-6.73-10.11-6.73-15.87,0-15.07,16.55-27.34,36.9-27.34,8.42,0,16.62,2.1,23.11,5.93,3.05,1.81,4.07,5.76,2.28,8.81-.87,1.48-2.27,2.54-3.94,2.97-1.65.43-3.39.18-4.88-.7-4.53-2.67-10.42-4.14-16.57-4.14-13.03,0-24.04,6.63-24.04,14.48,0,2.39,1.1,4.8,3.17,6.99,2.44,2.56,2.35,6.63-.21,9.08-1.22,1.16-2.79,1.78-4.44,1.78ZM198.87,237.31h.08-.08ZM243.83,209.7h0,0Z"/>
        </g>
      </g>
      <g>
        <g>
          <path class="st0" d="M217.39,271.4c-2.82,0-5.55-.43-8.1-1.31-1.2-.41-1.83-1.71-1.42-2.91.41-1.2,1.71-1.84,2.91-1.42,5.89,2.02,13.11,1.13,19.8-2.46,7.66-4.11,13.37-10.91,15.27-18.19.32-1.22,1.57-1.95,2.79-1.64,1.22.32,1.96,1.57,1.64,2.79-2.22,8.49-8.77,16.37-17.53,21.07-5.01,2.69-10.32,4.06-15.36,4.06Z"/>
          <path class="st0" d="M217.39,275.54c-3.31,0-6.49-.51-9.44-1.53-3.36-1.16-5.15-4.83-3.99-8.18.55-1.62,1.71-2.93,3.26-3.69,1.54-.75,3.29-.86,4.92-.3,4.79,1.63,10.82.84,16.49-2.19,6.66-3.58,11.61-9.41,13.22-15.58.89-3.42,4.42-5.48,7.83-4.61,3.45.91,5.5,4.43,4.61,7.85-2.5,9.58-9.82,18.43-19.58,23.67-5.56,2.98-11.55,4.55-17.32,4.55Z"/>
        </g>
        <g>
          <path class="st0" d="M253.52,288.23c-.19,0-.38-.02-.57-.07-6.29-1.62-11.86-7.05-14.52-14.18-2.45-6.56-1.97-13.08,1.34-17.88.72-1.04,2.14-1.31,3.18-.59,1.04.72,1.3,2.14.59,3.18-2.41,3.5-2.72,8.61-.82,13.67,2.15,5.74,6.51,10.09,11.37,11.34,1.22.32,1.96,1.56,1.65,2.79-.27,1.03-1.2,1.72-2.22,1.72Z"/>
          <path class="st0" d="M253.52,292.37c-.4,0-1.37-.13-1.75-.24-7.43-1.91-14.09-8.32-17.22-16.69-2.94-7.84-2.28-15.75,1.81-21.67.98-1.42,2.44-2.36,4.13-2.68,1.69-.3,3.4.06,4.82,1.04,1.4.95,2.35,2.42,2.66,4.1.32,1.7-.04,3.41-1.02,4.84-1.62,2.35-1.75,6.13-.36,9.87,1.65,4.43,5,7.89,8.53,8.79,3.43.88,5.51,4.4,4.63,7.83-.73,2.85-3.3,4.83-6.23,4.83ZM253.98,284.14h.08-.08Z"/>
        </g>
        <g>
          <path class="st0" d="M253.52,346.05c-.09,0-.18,0-.27-.02-1.26-.15-2.16-1.28-2.01-2.54.93-7.98-1.42-15.28-6.28-19.54-4.07-3.56-9.37-4.63-15.34-3.11-1.23.32-2.47-.43-2.79-1.65-.31-1.23.43-2.47,1.65-2.79,7.38-1.88,14.3-.43,19.48,4.1,6,5.24,8.92,14.03,7.82,23.51-.14,1.17-1.13,2.03-2.27,2.03Z"/>
          <path class="st0" d="M253.52,350.19c-.13,0-.52-.02-.64-.03-1.81-.21-3.34-1.06-4.41-2.42-1.07-1.35-1.54-3.03-1.34-4.74.77-6.62-1.06-12.58-4.9-15.93-3.03-2.64-6.94-3.39-11.59-2.21-3.42.89-6.93-1.2-7.82-4.64-.87-3.43,1.21-6.94,4.63-7.82,8.75-2.24,17-.46,23.24,4.99,7.02,6.15,10.47,16.29,9.2,27.11-.38,3.25-3.13,5.69-6.39,5.69ZM255.36,343.97s0,0,0,0c0,0,0,0,0,0Z"/>
        </g>
      </g>
    </g>
    <g>
      <g>
        <path class="st0" d="M312.86,384.8h-14.6c-1.27,0-2.29-1.03-2.29-2.29s1.03-2.29,2.29-2.29h14.6c1.21,0,2.19-.98,2.19-2.18l.12-21.2c0-.92.56-1.75,1.42-2.1l20.73-8.55c.86-.35,1.85-.16,2.5.51l14.93,15.08c.42.42.96.65,1.54.66.65-.02,1.15-.22,1.57-.64l21.14-20.9c.42-.41.65-.96.66-1.54,0-.59-.22-1.15-.64-1.57l-14.88-15.02c-.65-.66-.84-1.64-.49-2.49l8.61-20.73c.35-.85,1.19-1.41,2.12-1.41h.01l21.2.1h.02c.59,0,1.14-.23,1.56-.64.42-.41.64-.97.64-1.56v-30.17c0-1.22-1-2.21-2.23-2.21l-21.19.12h-.01c-.93,0-1.76-.56-2.12-1.41l-8.61-20.73c-.35-.85-.16-1.84.49-2.49l14.88-15.02c.42-.42.64-.98.64-1.57,0-.58-.23-1.13-.65-1.54l-21.14-20.91c-.42-.42-1.03-.67-1.57-.64-.58,0-1.13.24-1.54.65l-14.94,15.09c-.65.66-1.64.86-2.5.51l-20.73-8.55c-.85-.35-1.41-1.18-1.42-2.1l-.12-21.19c0-1.21-.98-2.19-2.19-2.19h-14.6c-1.27,0-2.29-1.03-2.29-2.29s1.03-2.29,2.29-2.29h14.6c3.73,0,6.77,3.03,6.77,6.76l.11,19.65,17.9,7.38,13.85-13.99c1.26-1.29,2.96-2,4.77-2.02h.05c1.8,0,3.49.7,4.78,1.97l21.13,20.9c1.29,1.26,2,2.96,2.02,4.77.01,1.82-.69,3.53-1.97,4.83l-13.81,13.93,7.44,17.9,19.66-.11c3.77,0,6.82,3.05,6.82,6.79v30.17c0,1.82-.71,3.53-2,4.81-1.28,1.27-2.97,1.97-4.78,1.97h-.05l-19.66-.09-7.44,17.9,13.81,13.93c1.28,1.29,1.98,3.01,1.97,4.83-.01,1.81-.73,3.51-2.02,4.77l-21.13,20.89c-1.29,1.28-2.97,1.94-4.82,1.97-1.81-.01-3.51-.73-4.77-2.02l-13.85-13.99-17.9,7.38-.11,19.66c0,3.71-3.04,6.74-6.77,6.74Z"/>
        <path class="st0" d="M312.86,388.94h-14.6c-3.55,0-6.43-2.89-6.43-6.43s2.88-6.43,6.43-6.43h12.66l.11-19.26c.01-2.59,1.57-4.91,3.97-5.9l20.74-8.54c2.43-.99,5.19-.44,7.03,1.42l13.56,13.7,18.38-18.17-13.51-13.64c-1.83-1.84-2.37-4.59-1.37-6.99l8.61-20.73c.99-2.4,3.32-3.96,5.94-3.96l19.29.09v-26.28l-19.25.11c-2.65,0-4.99-1.56-5.98-3.99l-8.61-20.71c-1-2.39-.47-5.14,1.38-7l13.51-13.64-18.38-18.17-13.57,13.71c-1.84,1.87-4.61,2.42-7.02,1.42l-20.72-8.55c-2.4-.97-3.97-3.29-3.98-5.91l-.11-19.25h-12.66c-3.55,0-6.43-2.89-6.43-6.43s2.88-6.43,6.43-6.43h14.6c6.02,0,10.91,4.88,10.91,10.89l.09,16.87,12.79,5.27,11.9-12.02c2.03-2.06,4.76-3.23,7.68-3.25,2.98,0,5.71,1.12,7.78,3.17l21.13,20.9c2.07,2.01,3.23,4.75,3.25,7.68.02,2.93-1.1,5.69-3.17,7.76l-11.87,11.98,5.31,12.79,16.88-.1c6.07,0,10.99,4.91,10.99,10.93v30.17c0,2.94-1.15,5.69-3.23,7.75-2.05,2.04-4.79,3.16-7.69,3.16l-16.95-.07-5.31,12.79,11.87,11.98c2.06,2.08,3.19,4.84,3.17,7.76-.02,2.92-1.18,5.65-3.26,7.7l-21.12,20.88c-2.01,2.01-4.76,3.14-7.7,3.16-2.98-.02-5.72-1.17-7.77-3.27l-11.88-11.99-12.79,5.27-.09,16.9c0,5.98-4.9,10.86-10.91,10.86ZM310.91,378.02v.02-.02ZM357.67,358.85l.02.02-.02-.02ZM376.09,337.96s0,0,0,0h0ZM310.91,183.92v.02-.02Z"/>
      </g>
      <g>
        <path class="st0" d="M298.51,330.11c-.09,0-.17,0-.26,0-1.27,0-2.29-1.04-2.28-2.3,0-1.26,1.03-2.28,2.29-2.28.07,0,.17,0,.25,0,11.88,0,23.06-4.6,31.51-12.96,8.51-8.42,13.22-19.65,13.28-31.61-.05-11.94-4.77-23.17-13.28-31.59-8.51-8.42-19.75-13.07-31.75-12.96h-.01c-1.26,0-2.28-1.02-2.29-2.28,0-1.27,1.01-2.3,2.28-2.3,13.17-.12,25.62,5.01,34.99,14.29,9.38,9.28,14.57,21.66,14.63,34.85-.06,13.21-5.26,25.59-14.63,34.87-9.31,9.22-21.64,14.29-34.73,14.29Z"/>
        <path class="st0" d="M298.51,334.25h-.26c-1.74,0-3.36-.69-4.57-1.92-1.21-1.22-1.86-2.84-1.85-4.55.01-3.53,2.9-6.4,6.43-6.4,11.04,0,21.19-4.18,28.84-11.77,7.72-7.64,12-17.82,12.05-28.69-.05-10.81-4.33-20.99-12.05-28.63-7.76-7.68-18-11.99-28.8-11.77-3.58,0-6.47-2.87-6.48-6.4-.02-3.53,2.84-6.44,6.39-6.46,14.61-.07,27.72,5.38,37.94,15.49,10.16,10.05,15.79,23.47,15.86,37.77-.06,14.35-5.7,27.77-15.86,37.83-10.08,9.99-23.46,15.49-37.64,15.49ZM298.28,325.97l.23,4.14v-4.12c-.08,0-.16-.02-.23-.02Z"/>
      </g>
    </g>
  </g>
</svg>