<?xml version="1.0" encoding="UTF-8"?>
<svg id="Calque_1" xmlns="http://www.w3.org/2000/svg" version="1.1" viewBox="0 0 566.93 566.93">
  <!-- Generator: Adobe Illustrator 29.7.0, SVG Export Plug-In . SVG Version: 2.1.1 Build 138)  -->
  <defs>
    <style>
      .st0 {
        fill: #1f4d33;
      }

      .st1 {
        opacity: .2;
      }
    </style>
  </defs>
  <g class="st1">
    <rect class="st0" x="14.13" y="14.2" width="538.58" height="538.58" rx="122.47" ry="122.47"/>
  </g>
  <g>
    <g>
      <path class="st0" d="M301.5,146.73h-.01c-4.63-4.65-11.01-7.5-18.07-7.5s-13.45,2.86-18.08,7.49l-.24.26c-4.49,4.61-7.25,10.89-7.25,17.82s2.87,13.45,7.49,18.08l.26.24c4.62,4.49,10.91,7.25,17.82,7.25s13.46-2.87,18.08-7.49c4.63-4.63,7.49-11.03,7.49-18.08s-2.86-13.45-7.49-18.07ZM295.44,176.82c-3.07,3.07-7.32,4.98-12.02,4.98s-8.78-1.81-11.82-4.77l-.2-.21c-3.07-3.08-4.98-7.33-4.98-12.02s1.81-8.78,4.77-11.83l.21-.19c3.08-3.08,7.33-4.98,12.02-4.98s8.96,1.89,12.03,4.96c3.07,3.07,4.96,7.33,4.96,12.03s-1.89,8.95-4.98,12.02Z"/>
      <path class="st0" d="M283.42,193.47c-7.48,0-14.58-2.89-19.98-8.12-5.72-5.72-8.7-12.92-8.7-20.56s2.89-14.6,8.14-19.98c11.32-11.38,29.82-11.15,40.68-.42.05.05.1.09.15.13,5.41,5.42,8.39,12.62,8.39,20.27s-2.98,14.86-8.39,20.28c-5.43,5.42-12.63,8.4-20.28,8.4ZM283.42,142.33c-6,0-11.64,2.34-15.88,6.59-4.32,4.45-6.58,10-6.58,15.88s2.34,11.63,6.58,15.89c9.03,8.72,23.36,8.39,31.78,0,4.24-4.25,6.58-9.89,6.58-15.88s-2.3-11.52-6.46-15.75c-.05-.04-.09-.08-.14-.12-4.25-4.25-9.88-6.59-15.87-6.59ZM283.42,184.9c-5.26,0-10.23-2.01-13.98-5.64-4.04-4.07-6.12-9.11-6.12-14.47s2.01-10.22,5.65-13.99c8.1-8.05,21.12-7.79,28.69-.23,3.78,3.78,5.86,8.84,5.86,14.23s-2.09,10.44-5.89,14.23c-3.8,3.79-8.85,5.88-14.21,5.88ZM283.42,150.91c-3.71,0-7.2,1.44-9.82,4.07-2.69,2.75-4.08,6.19-4.08,9.82s1.45,7.19,4.08,9.83c5.54,5.4,14.44,5.18,19.64,0,2.62-2.61,4.06-6.1,4.06-9.83s-1.44-7.22-4.05-9.83c-2.61-2.62-6.11-4.06-9.83-4.06ZM295.44,176.82h.08-.08Z"/>
    </g>
    <g>
      <path class="st0" d="M336.15,296.84c.15,2.36-1.65,4.38-4.01,4.51-2.36.15-4.38-1.65-4.53-4.01l-5.07-82.48c-.19-3.36-1.83-6.55-4.33-8.92-2.46-2.34-5.76-3.83-9.32-3.83h-50.96c-3.59,0-6.88,1.46-9.33,3.79-2.5,2.37-4.14,5.61-4.32,9.11l-5.07,82.33c-.13,2.36-2.16,4.16-4.51,4.01-2.36-.13-4.16-2.16-4.02-4.51l5.07-82.28c.3-5.76,2.93-11.04,6.95-14.85,4-3.8,9.38-6.17,15.24-6.17h50.96c5.85,0,11.22,2.41,15.22,6.19,4.02,3.83,6.66,9.08,6.96,14.69l5.07,82.41Z"/>
      <path class="st0" d="M331.87,304.47c-3.86,0-7.11-3.02-7.35-6.93l-5.07-82.48c-.14-2.47-1.37-4.97-3.36-6.86-2.02-1.92-4.57-2.98-7.19-2.98h-50.96c-2.65,0-5.2,1.04-7.18,2.93-2.01,1.9-3.23,4.46-3.36,7.01l-5.08,82.37c-.11,1.95-.98,3.75-2.45,5.07-1.48,1.31-3.24,1.99-5.35,1.84-1.95-.11-3.76-.99-5.07-2.46s-1.97-3.36-1.85-5.33l5.06-82.3c.34-6.39,3.15-12.41,7.92-16.91,4.76-4.52,10.93-7.02,17.36-7.02h50.96c6.39,0,12.56,2.5,17.36,7.04,4.7,4.47,7.59,10.59,7.93,16.78l5.06,82.39c.12,1.97-.53,3.87-1.84,5.34-1.31,1.48-3.11,2.35-5.09,2.47-.15.02-.3.02-.45.02ZM257.94,199.02h50.96c4.22,0,8.29,1.67,11.47,4.68s5.06,6.92,5.28,11l5.07,82.45c.04.65.62,1.1,1.24,1.11.43-.02.7-.26.81-.39.12-.14.32-.42.29-.83h0l-5.06-82.41c-.26-4.65-2.44-9.25-6.01-12.64-3.64-3.44-8.29-5.34-13.09-5.34h-50.96c-4.84,0-9.49,1.88-13.09,5.31-3.62,3.41-5.74,7.95-6,12.76l-5.06,82.31c-.03.63.46,1.18,1.1,1.22.53.02.71-.17.85-.29s.36-.38.39-.79l5.07-82.35c.2-4.16,2.08-8.14,5.28-11.17,3.13-2.98,7.21-4.63,11.46-4.63Z"/>
    </g>
    <g>
      <path class="st0" d="M250.13,275.07c0-2.37,1.92-4.29,4.29-4.29s4.29,1.92,4.29,4.29v137.82c0,1.83.71,3.28,1.75,4.32,1.3,1.3,3.04,2,4.57,2s3.26-.7,4.55-2c1.03-1.03,1.75-2.49,1.75-4.32v-100.61c0-2.37,1.92-4.29,4.29-4.29h15.8c2.37,0,4.29,1.92,4.29,4.29v100.61c0,1.83.71,3.28,1.75,4.32,1.3,1.3,3.04,2,4.57,2s3.26-.7,4.55-2l.19-.17c.94-1.02,1.58-2.41,1.58-4.14v-137.82c0-2.37,1.92-4.29,4.29-4.29s4.29,1.92,4.29,4.29v137.82c0,4.17-1.63,7.58-4.01,10.1l-.25.28c-2.94,2.94-7,4.5-10.63,4.5s-7.69-1.56-10.63-4.5c-2.53-2.53-4.26-6.04-4.26-10.38v-96.32h-7.23v96.32c0,4.34-1.73,7.85-4.26,10.38-2.92,2.94-6.99,4.5-10.62,4.5s-7.69-1.56-10.63-4.5c-2.53-2.53-4.26-6.04-4.26-10.38v-137.82Z"/>
      <path class="st0" d="M302.01,430.87c-4.64,0-9.43-2.02-12.83-5.41-3.38-3.39-5.17-7.73-5.17-12.58v-93.22h-1.01v93.22c0,4.84-1.79,9.19-5.17,12.58-6.74,6.76-18.88,6.79-25.65,0-3.38-3.36-5.17-7.72-5.17-12.57v-137.82c0-4.08,3.32-7.39,7.39-7.39s7.39,3.32,7.39,7.39v137.82c0,.85.28,1.57.85,2.14,1.48,1.46,3.22,1.5,4.71-.02.56-.55.84-1.27.84-2.12v-100.61c0-4.08,3.32-7.39,7.39-7.39h15.8c4.08,0,7.4,3.32,7.4,7.39v100.61c0,.85.28,1.57.84,2.12,1.42,1.44,3.04,1.7,4.71,0,.61-.62.86-1.29.86-2.12v-137.82c0-4.08,3.32-7.39,7.39-7.39s7.4,3.32,7.4,7.39v137.82c0,4.64-1.68,8.87-4.86,12.24-3.7,3.73-8.5,5.75-13.14,5.75ZM279.9,313.46h7.22c1.71,0,3.11,1.39,3.11,3.11v96.32c0,3.99,1.82,6.65,3.36,8.18,4.43,4.45,12.43,4.45,16.86,0,1.63-1.74,3.36-4.36,3.36-8.18v-137.82c0-1.31-2.37-1.31-2.37,0v137.82c0,2.4-.83,4.57-2.41,6.26-4.18,4.16-10.13,3.89-13.77.26-1.71-1.71-2.65-4.03-2.65-6.52v-100.61c0-.66-.53-1.18-1.19-1.18h-15.8c-.66,0-1.18.53-1.18,1.18v100.61c0,2.49-.95,4.8-2.65,6.52-3.66,3.64-9.86,3.64-13.51,0-1.72-1.73-2.66-4.04-2.66-6.52v-137.82c0-1.31-2.36-1.31-2.36,0v137.82c0,4,1.82,6.66,3.35,8.18,4.43,4.45,12.44,4.44,16.85,0,1.54-1.54,3.36-4.2,3.36-8.18v-96.32c0-1.71,1.39-3.11,3.11-3.11Z"/>
    </g>
  </g>
</svg>