<?xml version="1.0" encoding="UTF-8"?>
<svg id="Calque_1" xmlns="http://www.w3.org/2000/svg" version="1.1" viewBox="0 0 566.93 566.93">
  <!-- Generator: Adobe Illustrator 29.7.0, SVG Export Plug-In . SVG Version: 2.1.1 Build 138)  -->
  <defs>
    <style>
      .st0 {
        fill: #2f703f;
      }

      .st1 {
        fill: #fff;
      }
    </style>
  </defs>
  <rect class="st0" x="14.13" y="14.2" width="538.58" height="538.58" rx="122.47" ry="122.47"/>
  <g>
    <path class="st1" d="M148.31,175.63c-4.53,0-8.1.05-10.73.14-2.63.09-5.25.18-7.87.27-2.63.1-5.61.18-8.96.27-3.35.1-8.01.14-13.99.14h-45.35v8.42c17.2,0,21.39,5.43,21.39,16.3v127.64c0,13.04-3.83,19.56-20.3,19.56v8.15h78.49v-8.15c-17.92,0-26.89-6.88-26.89-20.64v-52.96c5.25,1.09,10.64,1.86,16.16,2.31,5.52.45,11.18.68,16.97.68,10.68,0,19.91-1.26,27.7-3.8,7.78-2.53,14.21-6.06,19.28-10.59,5.07-4.52,8.82-9.78,11.27-15.75,2.44-5.97,3.67-12.4,3.67-19.28,0-35.12-20.28-52.69-60.83-52.69ZM174.04,242.44c-1.27,4.89-3.3,9.19-6.11,12.9-2.81,3.71-6.34,6.7-10.59,8.96-4.25,2.27-9.37,3.39-15.34,3.39-6.7,0-7.53-.27-12.96-.81-5.43-.54-10.41-1.26-14.94-2.17v-65.45c0-9.59,3.8-14.39,11.41-14.39h7.06c32.41,0,43.38,14.12,43.38,42.37,0,5.25-.64,10.32-1.9,15.21Z"/>
    <path class="st1" d="M392.9,258.87c-3.44-6.42-7.51-11.36-12.22-14.8-4.71-3.44-9.74-5.75-15.07-6.93-5.34-1.18-10.46-1.77-15.34-1.77-7.97,0-15.21,1.72-21.73,5.16-6.52,3.44-12.08,8.06-16.7,13.85-4.62,5.8-8.2,12.4-10.73,19.82-2.54,7.43-3.8,15.21-3.8,23.36s1.18,15.84,3.53,23.08c2.35,7.24,5.84,13.49,10.46,18.74,4.62,5.25,10.36,9.42,17.25,12.49,6.88,3.08,14.84,4.62,23.9,4.62,10.86,0,19.56-2.68,27.53-8.29,7.34-5.17,13.99-12.42,18.57-21.44l.11-.22c.09-.24.15-.49.15-.76,0-.66-.21-1.27-.68-1.69-.85-.57-1.3-.62-1.91-.48-.58.13-1.32.9-1.32.9,0,0-8.69,10.28-13.96,14.42-5.53,4.35-12.97,6.45-20.58,6.45-5.8,0-9.64-1.16-14.34-3.6-4.71-2.44-8.69-5.84-11.95-10.18-3.26-4.35-5.79-9.41-7.6-15.21-1.77-5.67-2.67-15.33-2.7-21.7l24.3-4.47,43.4-7.3h0s7.35-1.25,7.35-1.25h0c.37-.06.58-.1.58-.1-1.09-10.5-3.05-16.29-6.48-22.72ZM363.61,282.24l-20.3,3.8-14.16,2.37c-3.98,0-6-1.69-6-3.86,0-4.35,1.23-14.27,2.49-18.35,1.26-4.07,3.12-7.69,5.57-10.86,2.44-3.16,5.38-5.7,8.83-7.6,3.44-1.9,4.51-2.32,9.14-2.85,7.73-.89,13.71,2.58,17.79,7.74,4.07,5.16,6.38,11.18,6.93,18.06,0,7.45-2.68,10.15-10.28,11.55Z"/>
    <path class="st1" d="M504.86,281.69c.37-.06.58-.1.58-.1-1.09-10.5-3.05-16.29-6.48-22.72-3.44-6.42-7.51-11.36-12.22-14.8-4.71-3.44-9.74-5.75-15.07-6.93-5.34-1.18-10.46-1.77-15.34-1.77-7.97,0-15.21,1.72-21.73,5.16-6.52,3.44-12.08,8.06-16.7,13.85-4.62,5.8-8.2,12.4-10.73,19.82-2.54,7.43-3.8,15.21-3.8,23.36s1.18,15.84,3.53,23.08c2.35,7.24,5.84,13.49,10.46,18.74,4.62,5.25,10.36,9.42,17.25,12.49,6.88,3.08,14.84,4.62,23.9,4.62,10.86,0,19.56-2.68,27.53-8.29,7.34-5.17,13.99-12.42,18.57-21.44l.11-.22c.09-.24.15-.49.15-.76,0-.66-.21-1.27-.68-1.69-.85-.57-1.3-.62-1.91-.48-.58.13-1.32.9-1.32.9,0,0-8.69,10.28-13.96,14.42-5.53,4.35-12.97,6.45-20.58,6.45-5.8,0-9.64-1.16-14.34-3.6-4.71-2.44-8.69-5.84-11.95-10.18-3.26-4.35-5.79-9.41-7.6-15.21-1.77-5.67-2.67-15.33-2.7-21.7l24.3-4.47,43.4-7.3h0s7.35-1.25,7.35-1.25h0ZM469.66,282.24l-20.3,3.8-14.16,2.37c-3.98,0-6-1.69-6-3.86,0-4.35,1.23-14.27,2.49-18.35,1.26-4.07,3.12-7.69,5.57-10.86,2.44-3.16,5.38-5.7,8.83-7.6,3.44-1.9,4.51-2.32,9.14-2.85,7.73-.89,13.71,2.58,17.79,7.74,4.07,5.16,6.38,11.18,6.93,18.06,0,7.45-2.68,10.15-10.28,11.55Z"/>
    <path class="st1" d="M274.66,291.07c-5.05-3.35-10.55-6.29-16.49-8.85-5.94-2.55-11.46-5.08-16.55-7.58-5.09-2.51-9.32-5.15-12.69-7.95-3.37-2.79-5.27-5.67-5.28-9.94-.01-6.53,2.54-9.96,7.54-12.87,4.25-2.48,10.22-2.84,15.69-2.09,14.27,1.96,28.37,11.08,36.09,30.68l2.37.12v-22.84c-4.52-3.8-5.97-4.99-11.8-8.49-7.53-4.87-17.24-7.37-25.37-7.79-6.82-.35-12.74.23-17.75,1.74-5.02,1.51-9.17,3.77-12.45,6.76-3.29,3-5.8,6.6-7.54,10.79-1.74,4.2-2.74,8.81-3,13.83-.26,5.02.67,11.77,3.03,15.71,2.36,3.95,5.4,7.41,9.14,10.4,3.73,2.99,7.83,5.58,12.27,7.77,4.44,2.19,8.62,4.04,12.53,5.54,5.03,1.94,9.39,3.8,13.1,5.57,3.7,1.78,6.79,3.62,9.26,5.51,2.46,1.9,4.24,4.14,5.35,6.71,1.1,2.57,1.97,5.67,1.38,9.16-1.88,11.12-10.03,14.43-24.4,14.65l-.78-.03c-15.98-.83-31.25-13.33-39.83-35.1l-2.68-.14v25.33c5.09,4.28,6.64,5.57,13.15,9.48,8.37,5.4,19.13,8.85,28.17,9.32l2.42.04c5.34-.47,10.66-.91,15.59-2.61,4.93-1.71,9.32-4.05,13.18-7.02,3.86-2.98,6.94-6.65,9.26-11.02,2.31-4.36,3.62-9.34,3.91-14.93.33-6.34-1.05-13.66-4.33-18.13-3.28-4.47-7.45-8.37-12.49-11.72Z"/>
  </g>
</svg>