<?xml version="1.0" encoding="UTF-8"?>
<svg id="Calque_1" xmlns="http://www.w3.org/2000/svg" version="1.1" viewBox="0 0 566.93 566.93">
  <!-- Generator: Adobe Illustrator 29.7.0, SVG Export Plug-In . SVG Version: 2.1.1 Build 138)  -->
  <defs>
    <style>
      .st0 {
        fill: #89bf89;
      }

      .st1 {
        opacity: .2;
      }
    </style>
  </defs>
  <g class="st1">
    <rect class="st0" x="14.13" y="14.2" width="538.58" height="538.58" rx="122.47" ry="122.47"/>
  </g>
  <g>
    <g>
      <g>
        <path class="st0" d="M235.11,401.42c-.35,0-.7-.07-1.04-.23-1.24-.58-1.78-2.05-1.2-3.29l.4-.84c1.39-2.88,4.28-8.86,6.13-20.89.21-1.35,1.48-2.28,2.83-2.07,1.35.21,2.28,1.47,2.07,2.83-1.96,12.77-5.07,19.2-6.56,22.3l-.37.77c-.42.9-1.31,1.43-2.25,1.43Z"/>
        <path class="st0" d="M235.11,405.57c-.99,0-1.94-.21-2.82-.64-1.56-.72-2.79-2.05-3.39-3.7-.61-1.67-.53-3.46.21-5.07l.42-.88c1.31-2.72,4.02-8.33,5.77-19.73.55-3.58,3.9-6.07,7.53-5.53,3.62.56,6.1,3.94,5.55,7.54-2.06,13.43-5.35,20.22-6.93,23.48l-.36.75c-1.06,2.29-3.42,3.79-5.98,3.79ZM233.62,398.21s0,.02-.02.03l.02-.03Z"/>
      </g>
      <g>
        <path class="st0" d="M343.78,376.24c-4.38,0-9.13-.46-14.25-1.37-.04,0-.07-.01-.11-.02-10.89-1.94-21.14-5.54-27.83-8.22-1.27-.51-1.89-1.95-1.38-3.22.51-1.27,1.95-1.89,3.22-1.38,6.45,2.59,16.32,6.06,26.76,7.92.04,0,.08.01.11.02,14.68,2.62,25.88,1.31,33.31-3.92,2.41-2.62,2.09-7.82,1.65-14.96-.47-7.54-1.05-16.93,1.43-27.79.47-2.81,3.89-3.5,7.84-4.31,2.37-.48,6.34-1.29,7.01-2.44.25-.42,1.97-4.56-11.88-22.07-4.55-5.77-7.15-12.98-7.52-20.84-.46-9.95-1.59-21.29-6.61-36.77-.42-1.3.29-2.7,1.59-3.12,1.3-.42,2.7.29,3.12,1.59,5.2,16.04,6.36,27.78,6.85,38.07.32,6.82,2.56,13.05,6.46,18,14.66,18.53,14.03,24.65,12.28,27.65-1.78,3.07-6.31,3.99-10.31,4.8-1.34.27-3.29.67-4.1,1.03-2.18,10.04-1.64,18.82-1.2,25.9.51,8.24.91,14.74-3.21,18.89-.1.1-.2.19-.31.27-5.82,4.19-13.5,6.29-22.91,6.29ZM365.24,367.94h.02-.02ZM371.55,324.27c-.01.05-.02.1-.04.16.01-.05.03-.1.04-.16Z"/>
        <path class="st0" d="M343.78,380.38c-4.62,0-9.66-.49-14.98-1.43-11.34-2.01-21.88-5.72-28.75-8.48-1.64-.66-2.92-1.91-3.62-3.53s-.72-3.43-.06-5.07c.66-1.64,1.92-2.94,3.55-3.63,1.63-.7,3.43-.72,5.07-.04,6.24,2.5,15.82,5.87,25.92,7.68,13.35,2.39,23.33,1.4,29.83-2.89.99-1.69.66-6.96.38-11.64-.48-7.81-1.08-17.53,1.52-28.97.9-5.39,6.53-6.53,11.05-7.45.69-.14,2.33-.47,3.58-.82-.72-2.18-3.08-7.21-10.88-17.06-5.1-6.46-8-14.48-8.41-23.22-.45-9.67-1.54-20.69-6.41-35.69-.55-1.67-.4-3.47.4-5.05.8-1.58,2.18-2.75,3.86-3.29,3.45-1.13,7.21.78,8.33,4.26,5.35,16.49,6.55,28.56,7.04,39.14.28,5.96,2.21,11.36,5.58,15.63,12.69,16.04,16.46,25.7,12.6,32.3-2.72,4.67-8.46,5.83-13.07,6.77-.42.08-.89.18-1.35.27-1.49,8.5-1.02,16.11-.64,22.34.55,8.9,1.03,16.59-4.41,22.07-.17.16-.66.58-.85.72-6.51,4.68-15.03,7.06-25.31,7.06ZM301.89,365.87s0,0,.01,0c0,0,0,0-.01,0ZM378.74,313.61h0Z"/>
      </g>
      <g>
        <path class="st0" d="M218.02,306.32c-.98,0-1.91-.59-2.3-1.56-1.64-4.09-3-8.26-4.02-12.41-.06-.13-.1-.26-.14-.4-2.69-11.26-3.2-22.68-1.57-34.9,7.11-53.66,56.84-60.49,66.73-61.31,23.37-1.97,45.83,2.65,61.61,12.65,1.16.73,1.5,2.26.77,3.42-.73,1.16-2.27,1.5-3.42.77-14.88-9.44-36.21-13.77-58.54-11.9-12.97,1.08-55.78,8.38-62.23,57.03-1.54,11.47-1.08,22.17,1.38,32.69.05.12.09.25.13.38.98,4.05,2.3,8.14,3.91,12.14.51,1.27-.11,2.71-1.38,3.22-.3.12-.62.18-.92.18Z"/>
        <path class="st0" d="M218.02,310.47c-2.71,0-5.12-1.63-6.14-4.15-1.71-4.27-3.13-8.63-4.2-12.96-2.96-12.2-3.49-24.1-1.79-36.85,7.53-56.84,60.04-64.03,70.49-64.89,24.21-2.05,47.63,2.79,64.16,13.28,3.09,1.96,4,6.06,2.04,9.14-1.95,3.07-6.05,3.99-9.12,2.05-14.15-8.99-34.58-13.06-55.99-11.27-12.19,1.01-52.43,7.85-58.47,53.44-1.47,10.97-1.04,21.17,1.31,31.2,1.05,4.21,2.3,8.1,3.84,11.93,1.36,3.36-.27,7.23-3.65,8.6-.81.32-1.64.49-2.49.49ZM219.56,303.22h.08-.08Z"/>
      </g>
      <g>
        <path class="st0" d="M315.59,415.52c-.09,0-.18,0-.27-.01-1.36-.15-2.34-1.37-2.2-2.73.67-6.17,8-29.81,14.58-41.57.67-1.19,2.18-1.62,3.37-.95,1.2.67,1.62,2.18.95,3.38-6.19,11.07-13.36,33.98-13.98,39.68-.14,1.27-1.21,2.21-2.46,2.21Z"/>
        <path class="st0" d="M315.59,419.66c-.24,0-.75-.04-.98-.08-1.49-.15-3.07-1.01-4.18-2.39-1.11-1.38-1.62-3.11-1.42-4.88.72-6.62,8.16-30.76,15.08-43.13.86-1.54,2.27-2.66,3.98-3.14,1.68-.49,3.48-.27,5.03.59,1.53.86,2.64,2.26,3.13,3.96.49,1.71.28,3.49-.59,5.04-6.07,10.85-12.94,33.24-13.48,38.12-.36,3.36-3.19,5.9-6.58,5.9Z"/>
      </g>
    </g>
    <g>
      <g>
        <path class="st0" d="M289.44,317.93c-11.13,0-21.75-4-30.16-11.43-1.03-.91-1.12-2.47-.22-3.5.91-1.03,2.47-1.12,3.5-.22,8.15,7.2,18.63,10.8,29.48,10.1,10.86-.68,20.8-5.54,28-13.69,8.81-9.98,12.18-23.67,9.02-36.61-.33-1.33.49-2.67,1.82-3,1.33-.33,2.67.49,3,1.82,3.55,14.52-.23,29.87-10.11,41.07-8.07,9.15-19.22,14.6-31.41,15.36-.97.06-1.95.09-2.91.09Z"/>
        <path class="st0" d="M289.44,322.07c-12.11,0-23.79-4.42-32.9-12.46-2.74-2.42-3-6.61-.59-9.35,1.17-1.33,2.79-2.12,4.55-2.22,1.69-.1,3.46.47,4.79,1.64,7.33,6.47,16.69,9.69,26.49,9.08,9.76-.61,18.69-4.98,25.16-12.31,7.91-8.96,10.94-21.26,8.1-32.89-.42-1.71-.15-3.48.77-5,.92-1.51,2.37-2.58,4.1-3,1.68-.42,3.47-.15,4.99.76,1.52.92,2.59,2.38,3.01,4.1,3.87,15.84-.25,32.58-11.03,44.8-8.81,9.98-20.97,15.92-34.25,16.76-1.07.06-2.13.1-3.17.1ZM333.08,261.59s0,0,0,0c0,0,0,0,0,0Z"/>
      </g>
      <g>
        <path class="st0" d="M260.96,307.15c-.96,0-1.87-.56-2.28-1.5-.54-1.26.04-2.72,1.29-3.26l16.23-7.01c1.26-.55,2.72.04,3.26,1.29.54,1.26-.04,2.72-1.29,3.26l-16.23,7.01c-.32.14-.65.2-.98.2Z"/>
        <path class="st0" d="M260.96,311.29c-2.64,0-5.03-1.57-6.08-4-.7-1.63-.73-3.42-.07-5.07.65-1.64,1.9-2.94,3.53-3.63l16.22-7c1.61-.7,3.42-.74,5.06-.08,1.65.65,2.94,1.91,3.65,3.54,1.44,3.32-.11,7.23-3.44,8.69l-16.24,7.01c-.84.36-1.72.54-2.62.54ZM277.87,299.19h-.01s0,0,.01,0Z"/>
      </g>
      <g>
        <path class="st0" d="M260.28,324.82s-.06,0-.1,0c-1.37-.05-2.43-1.2-2.38-2.57l.68-17.66c.05-1.37,1.21-2.44,2.57-2.38,1.37.05,2.43,1.2,2.38,2.57l-.68,17.66c-.05,1.34-1.15,2.38-2.48,2.38Z"/>
        <path class="st0" d="M260.28,328.96h-.1c-1.91-.06-3.55-.82-4.76-2.11s-1.83-2.99-1.76-4.76l.68-17.66c.07-1.77.82-3.4,2.13-4.61,1.3-1.21,2.94-1.74,4.76-1.75,3.64.15,6.49,3.23,6.34,6.87l-.68,17.67c-.14,3.57-3.04,6.36-6.61,6.36Z"/>
      </g>
    </g>
    <g>
      <g>
        <path class="st0" d="M250.91,294.17c-.91,0-1.78-.5-2.22-1.36-8.44-16.77-5.87-36.71,6.56-50.78,9.89-11.21,24.66-16.87,39.5-15.16,5.35.61,10.52,2.16,15.36,4.6,1.22.62,1.71,2.11,1.09,3.33-.62,1.22-2.11,1.71-3.33,1.09-4.31-2.18-8.91-3.56-13.68-4.1-13.24-1.53-26.41,3.52-35.22,13.51-11.08,12.55-13.37,30.32-5.85,45.27.62,1.22.12,2.71-1.1,3.33-.36.18-.74.26-1.11.26Z"/>
        <path class="st0" d="M250.92,298.31c-2.52,0-4.78-1.4-5.91-3.64-9.2-18.29-6.4-40.03,7.15-55.39,10.78-12.22,26.86-18.42,43.09-16.54,5.85.67,11.48,2.36,16.75,5.02,3.26,1.67,4.57,5.65,2.92,8.9-1.65,3.25-5.65,4.53-8.88,2.94-3.89-1.97-8.02-3.21-12.3-3.7-11.84-1.38-23.72,3.16-31.65,12.15-9.96,11.27-12.02,27.23-5.25,40.66,1.64,3.28.32,7.26-2.94,8.9-.93.46-1.95.7-2.97.7ZM252.4,290.94h.08-.08Z"/>
      </g>
      <g>
        <path class="st0" d="M318.09,253.31c-3.17,0-6.35-1.11-8.9-3.36-2.7-2.38-4.31-5.67-4.53-9.26-.22-3.59.96-7.05,3.34-9.75,4.91-5.57,13.44-6.1,19.01-1.19,2.7,2.38,4.31,5.67,4.53,9.26.22,3.59-.96,7.05-3.34,9.75h0c-2.66,3.01-6.37,4.55-10.11,4.55ZM318.1,231.34c-2.36,0-4.71.97-6.39,2.88-1.5,1.7-2.25,3.89-2.11,6.16.14,2.27,1.16,4.35,2.86,5.85,1.7,1.5,3.89,2.26,6.16,2.11,2.27-.14,4.35-1.16,5.85-2.86h0c1.5-1.7,2.25-3.89,2.11-6.16-.14-2.27-1.16-4.35-2.86-5.85-1.61-1.42-3.62-2.12-5.63-2.12Z"/>
        <path class="st0" d="M318.09,257.45c-4.29,0-8.42-1.56-11.64-4.4-3.53-3.12-5.63-7.42-5.92-12.11-.29-4.7,1.26-9.23,4.37-12.75,6.42-7.26,17.57-7.97,24.85-1.55,3.53,3.12,5.63,7.42,5.92,12.11.3,4.69-1.26,9.22-4.37,12.75-3.34,3.78-8.16,5.95-13.21,5.95ZM318.1,235.48c-1.25,0-2.45.54-3.28,1.48-.78.88-1.16,1.98-1.08,3.16.07,1.16.59,2.23,1.47,3,.88.78,2.03,1.17,3.15,1.08,1.18-.07,2.24-.59,3.01-1.47.78-.88,1.16-1.98,1.08-3.16-.07-1.16-.59-2.23-1.47-3-.8-.7-1.82-1.09-2.89-1.09Z"/>
      </g>
    </g>
    <g>
      <g>
        <path class="st0" d="M275.89,372.04c-.07,0-.15,0-.22,0-32.27-2.86-61.93-20.99-79.34-48.47-.73-1.16-.39-2.69.77-3.42,1.16-.73,2.69-.39,3.42.77,16.59,26.19,44.85,43.46,75.59,46.19,1.36.12,2.37,1.33,2.25,2.69-.11,1.29-1.2,2.26-2.47,2.26Z"/>
        <path class="st0" d="M275.89,376.19c-.15,0-.51-.02-.66-.03-33.48-2.98-64.32-21.81-82.41-50.38-1.95-3.08-1.03-7.17,2.04-9.13,3.1-1.97,7.19-1.04,9.14,2.05,15.91,25.11,42.99,41.67,72.46,44.28,3.64.32,6.33,3.54,6.01,7.18-.3,3.44-3.14,6.03-6.59,6.03Z"/>
      </g>
      <g>
        <path class="st0" d="M193.83,344.49c-.19,0-.37-.02-.56-.06-1.33-.31-2.16-1.64-1.85-2.98l4.59-19.77c.31-1.33,1.65-2.16,2.98-1.85,1.33.31,2.16,1.64,1.85,2.98l-4.59,19.77c-.27,1.14-1.29,1.92-2.41,1.92Z"/>
        <path class="st0" d="M193.83,348.62c-.34,0-1.25-.11-1.59-.19-3.46-.79-5.69-4.36-4.87-7.92l4.6-19.78c.39-1.71,1.44-3.18,2.94-4.11,1.5-.95,3.26-1.25,5-.84,3.57.84,5.78,4.41,4.95,7.95l-4.59,19.77c-.7,3.02-3.35,5.12-6.45,5.12Z"/>
      </g>
      <g>
        <path class="st0" d="M198.42,324.71c-1.29,0-2.38-1-2.47-2.31-.09-1.37.94-2.55,2.3-2.64l20.25-1.39c1.36-.11,2.55.94,2.64,2.3.09,1.37-.94,2.55-2.3,2.64l-20.25,1.39c-.06,0-.12,0-.17,0Z"/>
        <path class="st0" d="M198.42,328.85c-3.47,0-6.37-2.71-6.6-6.16-.25-3.63,2.51-6.8,6.14-7.06l20.27-1.39c1.73-.07,3.44.43,4.78,1.59,1.35,1.16,2.16,2.78,2.28,4.56.12,1.75-.45,3.47-1.61,4.8-1.16,1.33-2.77,2.13-4.52,2.26l-20.27,1.39c-.09,0-.36,0-.46,0ZM218.83,322.49h-.03s.02,0,.03,0Z"/>
      </g>
    </g>
    <g>
      <g>
        <path class="st0" d="M188.53,304.44c-1.02,0-1.97-.63-2.34-1.65-4.03-11.33-6.08-23.21-6.08-35.29,0-38.79,21.27-74.27,55.51-92.58,4.52-2.42,9.24-4.51,14.01-6.22,1.29-.46,2.71.21,3.17,1.5.46,1.29-.21,2.71-1.5,3.17-4.54,1.62-9.02,3.61-13.33,5.92-32.62,17.45-52.89,51.25-52.89,88.21,0,11.52,1.95,22.83,5.79,33.63.46,1.29-.21,2.71-1.5,3.17-.27.1-.56.14-.83.14Z"/>
        <path class="st0" d="M188.53,308.58c-2.8,0-5.31-1.77-6.24-4.41-4.19-11.78-6.31-24.12-6.31-36.68,0-40.32,22.11-77.19,57.7-96.22,4.66-2.51,9.56-4.68,14.57-6.47,3.47-1.22,7.23.59,8.46,4,1.23,3.45-.57,7.24-4.01,8.47-4.35,1.55-8.64,3.45-12.77,5.66-31.27,16.73-50.7,49.13-50.7,84.56,0,11.06,1.87,21.9,5.55,32.24.59,1.67.5,3.46-.26,5.06-.76,1.61-2.1,2.81-3.78,3.4-.6.23-1.38.38-2.2.38ZM190.1,301.39h.08-.08Z"/>
      </g>
      <g>
        <path class="st0" d="M263.34,183.23c-8.76,0-15.88-7.12-15.88-15.88s7.12-15.88,15.88-15.88,15.88,7.12,15.88,15.88-7.12,15.88-15.88,15.88ZM263.34,156.43c-6.02,0-10.92,4.9-10.92,10.92s4.9,10.92,10.92,10.92,10.92-4.9,10.92-10.92-4.9-10.92-10.92-10.92Z"/>
        <path class="st0" d="M263.34,187.37c-11.04,0-20.02-8.99-20.02-20.02s8.98-20.02,20.02-20.02,20.02,8.98,20.02,20.02-8.98,20.02-20.02,20.02ZM263.34,160.57c-3.74,0-6.78,3.04-6.78,6.78s3.04,6.79,6.78,6.79,6.78-3.04,6.78-6.79-3.04-6.78-6.78-6.78Z"/>
      </g>
    </g>
    <g>
      <g>
        <path class="st0" d="M375.51,221.8c-.89,0-1.74-.48-2.19-1.31-16.23-30.41-47.63-50.63-81.94-52.77-1.37-.08-2.41-1.26-2.32-2.63.08-1.37,1.25-2.4,2.63-2.32,36.01,2.24,68.96,23.46,86,55.38.64,1.21.19,2.71-1.02,3.35-.37.2-.77.29-1.17.29Z"/>
        <path class="st0" d="M375.51,225.95c-2.45,0-4.69-1.34-5.84-3.51-15.56-29.16-45.66-48.53-78.54-50.58-3.65-.23-6.42-3.39-6.19-7.02.11-1.77.9-3.39,2.23-4.56,1.33-1.16,3.06-1.7,4.8-1.63,37.42,2.33,71.68,24.38,89.39,57.57.84,1.55,1.01,3.35.49,5.05-.51,1.69-1.66,3.08-3.23,3.91-.92.5-2.01.78-3.1.78ZM376.97,218.54h.08-.08ZM291.43,166.91h0,0Z"/>
      </g>
      <g>
        <path class="st0" d="M375.5,221.81c-.32,0-.64-.06-.96-.19-1.26-.53-1.86-1.98-1.33-3.25l8.72-20.79c.53-1.26,1.99-1.86,3.25-1.33,1.26.53,1.86,1.98,1.33,3.25l-8.72,20.78c-.4.95-1.32,1.52-2.29,1.52Z"/>
        <path class="st0" d="M375.5,225.95c-.87,0-1.73-.17-2.55-.51-1.63-.68-2.9-1.96-3.57-3.6-.68-1.63-.67-3.44.02-5.07l8.72-20.78c.68-1.63,1.96-2.9,3.6-3.57,1.64-.66,3.45-.66,5.07.04,1.61.66,2.88,1.94,3.55,3.58.68,1.63.67,3.44-.02,5.07l-8.72,20.78c-1.03,2.47-3.43,4.06-6.1,4.06Z"/>
      </g>
      <g>
        <path class="st0" d="M375.5,221.8c-.05,0-.11,0-.16,0l-22.49-1.48c-1.37-.09-2.4-1.27-2.31-2.64.09-1.37,1.28-2.4,2.64-2.31l22.49,1.48c1.37.09,2.4,1.27,2.31,2.64-.09,1.31-1.18,2.32-2.47,2.32Z"/>
        <path class="st0" d="M375.51,225.95c-.19,0-.56-.02-.75-.05l-22.18-1.44c-3.65-.26-6.41-3.41-6.17-7.04.12-1.77.91-3.39,2.25-4.55,1.33-1.16,3.02-1.74,4.79-1.63l22.49,1.47c3.65.26,6.41,3.41,6.17,7.04-.22,3.47-3.13,6.19-6.6,6.19Z"/>
      </g>
    </g>
  </g>
</svg>