<?xml version="1.0" encoding="UTF-8"?>
<svg id="Calque_1" xmlns="http://www.w3.org/2000/svg" version="1.1" viewBox="0 0 566.93 566.93">
  <!-- Generator: Adobe Illustrator 29.7.0, SVG Export Plug-In . SVG Version: 2.1.1 Build 138)  -->
  <defs>
    <style>
      .st0 {
        fill: #f4a261;
      }

      .st1 {
        opacity: .2;
      }
    </style>
  </defs>
  <g class="st1">
    <rect class="st0" x="14.13" y="14.2" width="538.58" height="538.58" rx="122.47" ry="122.47"/>
  </g>
  <g>
    <g>
      <g>
        <path class="st0" d="M345.05,264.08c-.79,0-1.57-.37-2.06-1.07-9.24-13.16-33.18-22.01-59.57-22.01s-50.32,8.84-59.56,22.01c-.8,1.13-2.36,1.41-3.5.61-1.13-.8-1.41-2.36-.61-3.5,10.29-14.66,35.28-24.14,63.67-24.14s53.39,9.48,63.68,24.14c.8,1.13.52,2.7-.61,3.5-.44.31-.94.46-1.44.46Z"/>
        <path class="st0" d="M345.05,268.22c-2.16,0-4.2-1.06-5.45-2.82-8.36-11.93-31.47-20.25-56.19-20.25s-47.81,8.32-56.17,20.24c-1.02,1.46-2.55,2.43-4.3,2.73-1.75.3-3.51-.1-4.97-1.12-1.44-1.01-2.41-2.54-2.73-4.29-.31-1.75.08-3.53,1.11-4.98,11.04-15.73,37.36-25.9,67.05-25.9s56.03,10.17,67.07,25.9c1.02,1.45,1.42,3.22,1.11,4.97-.31,1.75-1.28,3.28-2.73,4.29-1.14.79-2.45,1.21-3.81,1.21ZM346.38,260.63h.08-.08Z"/>
      </g>
      <g>
        <path class="st0" d="M283.42,224.63c-18.51,0-33.56-15.05-33.56-33.56s15.06-33.56,33.56-33.56,33.56,15.05,33.56,33.56-15.05,33.56-33.56,33.56ZM283.42,162.53c-15.74,0-28.54,12.8-28.54,28.54s12.8,28.54,28.54,28.54,28.54-12.8,28.54-28.54-12.8-28.54-28.54-28.54Z"/>
        <path class="st0" d="M283.42,228.77c-20.79,0-37.7-16.91-37.7-37.7s16.91-37.7,37.7-37.7,37.7,16.91,37.7,37.7-16.91,37.7-37.7,37.7ZM283.42,166.67c-13.45,0-24.4,10.94-24.4,24.4s10.95,24.4,24.4,24.4,24.4-10.94,24.4-24.4-10.95-24.4-24.4-24.4Z"/>
      </g>
    </g>
    <g>
      <g>
        <path class="st0" d="M229.95,392.92c-.23,0-.46-.03-.7-.1-39.05-11.24-69.5-68.96-71.32-82.27-.1-.73.13-1.47.62-2.01.49-.55,1.18-.84,1.94-.83,1.29.03,2.76.05,4.38.07,7.68.09,19.29.23,31.92,2.51,1.36.25,2.27,1.55,2.02,2.92-.25,1.37-1.56,2.27-2.92,2.02-12.22-2.21-23.12-2.34-31.09-2.43-.42,0-.83,0-1.22-.02,4.88,16.33,33.03,65.43,67.06,75.22,1.33.38,2.1,1.77,1.72,3.11-.32,1.1-1.32,1.82-2.41,1.82Z"/>
        <path class="st0" d="M229.95,397.06c-.38,0-1.45-.15-1.82-.25-41.44-11.93-72.34-71.36-74.3-85.7-.27-1.92.33-3.87,1.64-5.34,1.26-1.42,3.23-2.08,5.06-2.21l4.39.07c7.8.09,19.61.23,32.6,2.57,3.61.66,6.01,4.13,5.37,7.73-.65,3.61-4.1,6.03-7.72,5.36-9.6-1.73-18.42-2.15-25.58-2.3,7.92,18.45,32.98,58.61,62.2,67.01,3.53,1.03,5.57,4.72,4.55,8.23-.81,2.83-3.44,4.81-6.39,4.81ZM230.4,388.84h.08-.08Z"/>
      </g>
      <g>
        <path class="st0" d="M237.46,373.63c-.85,0-1.68-.43-2.15-1.22-21.59-35.94-30.9-67.01-29.27-97.8.07-1.36,1.25-2.41,2.58-2.38,8.8.25,24.39,6.06,39.38,18.48,1.07.88,1.22,2.47.33,3.53-.88,1.07-2.47,1.21-3.53.33-12.71-10.53-25.62-16-33.85-17.12-.92,28.91,8.23,58.34,28.67,92.36.71,1.19.33,2.73-.86,3.44-.4.24-.85.36-1.29.36Z"/>
        <path class="st0" d="M237.46,377.76c-2.31,0-4.49-1.23-5.69-3.2-22.05-36.7-31.54-68.52-29.87-100.17.19-3.58,3.32-6.22,6.84-6.3,8.8.25,25.06,5.49,41.89,19.43,1.37,1.12,2.21,2.73,2.38,4.5.17,1.77-.37,3.5-1.5,4.87-1.12,1.37-2.73,2.21-4.5,2.38-1.78.15-3.49-.37-4.86-1.5-10.15-8.41-20.11-13.16-27.13-15.19.26,26.51,9.27,53.71,28.14,85.1.91,1.52,1.18,3.32.75,5.04-.43,1.73-1.51,3.18-3.03,4.09-1.03.62-2.21.95-3.42.95ZM238.86,370.28h.08-.08Z"/>
      </g>
      <g>
        <path class="st0" d="M336.89,392.92c-1.09,0-2.09-.72-2.41-1.82-.38-1.33.39-2.72,1.72-3.11,34.02-9.79,62.18-58.89,67.06-75.22-.4,0-.81.01-1.22.02-7.96.09-18.87.23-31.09,2.43-1.35.24-2.67-.66-2.92-2.02-.25-1.36.66-2.67,2.02-2.92,12.63-2.28,24.24-2.42,31.92-2.51,1.62-.02,3.08-.04,4.38-.07.77-.03,1.44.29,1.94.83.49.55.72,1.28.62,2.01-1.82,13.31-32.27,71.03-71.32,82.27-.23.07-.47.1-.7.1Z"/>
        <path class="st0" d="M336.89,397.06c-2.95,0-5.58-1.98-6.39-4.82-1.01-3.5,1.02-7.2,4.54-8.22,29.23-8.4,54.29-48.56,62.22-67.01-7.16.15-15.99.56-25.58,2.3-3.62.67-7.08-1.75-7.73-5.36-.65-3.6,1.75-7.07,5.35-7.73,13-2.35,24.81-2.48,32.62-2.57l4.32-.07c1.95,0,3.81.74,5.12,2.21,1.3,1.45,1.9,3.39,1.64,5.33-1.96,14.35-32.86,73.78-74.28,85.7-.37.11-1.45.26-1.84.26Z"/>
      </g>
      <g>
        <path class="st0" d="M329.38,373.63c-.44,0-.89-.12-1.29-.36-1.19-.71-1.57-2.26-.86-3.44,20.44-34.02,29.59-63.46,28.67-92.36-8.23,1.12-21.14,6.59-33.85,17.12-1.07.88-2.65.73-3.53-.33-.88-1.07-.74-2.65.33-3.53,14.99-12.42,30.58-18.23,39.38-18.48,1.38-.04,2.51,1.02,2.58,2.38,1.62,30.79-7.68,61.87-29.27,97.8-.47.78-1.3,1.22-2.15,1.22Z"/>
        <path class="st0" d="M329.38,377.76c-1.21,0-2.39-.32-3.42-.95-1.52-.91-2.6-2.36-3.03-4.09-.43-1.72-.16-3.52.76-5.04,18.86-31.4,27.88-58.6,28.13-85.1-7.02,2.03-16.98,6.78-27.13,15.18-2.82,2.34-7.03,1.94-9.36-.87-2.34-2.83-1.94-7.03.88-9.37,16.83-13.94,33.09-19.18,41.9-19.43,3.69-.22,6.64,2.66,6.83,6.3,1.67,31.65-7.82,63.47-29.86,100.15-1.22,1.99-3.4,3.22-5.71,3.22Z"/>
      </g>
      <g>
        <path class="st0" d="M305.54,348.58c-.23,0-.46-.03-.69-.1-1.33-.38-2.1-1.77-1.72-3.1,2.59-9.05,4.08-25.02,1.58-40.31-2.01-12.3-7.34-28.25-21.28-35.26-13.95,7.01-19.28,22.96-21.28,35.26-2.49,15.28-1,31.26,1.58,40.31.38,1.33-.39,2.72-1.72,3.1-1.33.38-2.72-.39-3.1-1.72-6.08-21.3-5.48-68.78,23.48-82.01.66-.3,1.42-.3,2.08,0,28.96,13.23,29.57,60.71,23.48,82.01-.32,1.1-1.32,1.82-2.41,1.82Z"/>
        <path class="st0" d="M261.3,352.72c-1.11,0-2.22-.28-3.21-.83-1.56-.87-2.68-2.28-3.17-4-6.62-23.18-5.87-72.47,25.75-86.92,1.76-.79,3.76-.78,5.51,0,31.63,14.45,32.38,63.74,25.76,86.93-.82,2.84-3.45,4.82-6.39,4.82-.38,0-1.45-.15-1.81-.25-1.72-.49-3.14-1.62-4-3.17s-1.07-3.35-.58-5.05c2.45-8.6,3.87-23.85,1.47-38.5-1.74-10.68-6.14-24.48-17.19-31.21-11.05,6.73-15.46,20.53-17.19,31.2-2.39,14.65-.98,29.9,1.48,38.5.49,1.71.28,3.5-.58,5.05-.87,1.55-2.28,2.68-3.99,3.16-.61.18-1.22.26-1.84.26Z"/>
      </g>
    </g>
  </g>
</svg>