<?xml version="1.0" encoding="UTF-8"?>
<svg id="Calque_1" xmlns="http://www.w3.org/2000/svg" version="1.1" viewBox="0 0 566.93 566.93">
  <!-- Generator: Adobe Illustrator 29.7.0, SVG Export Plug-In . SVG Version: 2.1.1 Build 138)  -->
  <defs>
    <style>
      .st0 {
        fill: #1f4d33;
      }
    </style>
  </defs>
  <path class="st0" d="M167.08,192.68c-4.14,0-7.42.04-9.82.13-2.4.08-4.81.17-7.21.25-2.41.09-5.14.17-8.2.25-3.07.09-7.33.13-12.8.13h-41.51v7.7c15.74,0,19.58,4.97,19.58,14.91v116.82c0,11.93-3.5,17.9-18.58,17.9v7.46h71.83v-7.46c-16.41,0-24.61-6.3-24.61-18.89v-48.47c4.8,1,9.73,1.7,14.79,2.11,5.05.41,10.23.62,15.54.62,9.77,0,18.23-1.16,25.35-3.48,7.12-2.32,13.01-5.55,17.65-9.7,4.64-4.14,8.08-8.95,10.31-14.42,2.24-5.47,3.36-11.35,3.36-17.65,0-32.15-18.56-48.22-55.68-48.22ZM190.63,253.83c-1.16,4.47-3.02,8.41-5.59,11.81-2.57,3.4-5.8,6.13-9.7,8.2-3.89,2.08-8.57,3.11-14.04,3.11-6.13,0-6.89-.25-11.86-.74-4.97-.5-9.53-1.16-13.67-1.99v-59.9c0-8.78,3.48-13.17,10.44-13.17h6.46c29.66,0,39.7,12.93,39.7,38.78,0,4.81-.58,9.45-1.74,13.92Z"/>
  <path class="st0" d="M390.95,268.87c-3.15-5.88-6.88-10.4-11.18-13.55-4.31-3.15-8.91-5.26-13.8-6.34-4.89-1.08-9.57-1.62-14.04-1.62-7.29,0-13.92,1.58-19.88,4.72-5.97,3.15-11.06,7.38-15.29,12.68-4.23,5.31-7.5,11.35-9.82,18.14-2.32,6.8-3.48,13.92-3.48,21.38s1.08,14.5,3.23,21.13c2.15,6.63,5.34,12.35,9.57,17.15,4.23,4.81,9.48,8.62,15.78,11.43,6.3,2.82,13.59,4.23,21.87,4.23,9.94,0,17.91-2.45,25.2-7.59,6.72-4.73,12.8-11.37,16.99-19.62l.1-.2c.08-.22.14-.45.14-.69,0-.6-.19-1.16-.62-1.55-.78-.52-1.19-.57-1.75-.44-.53.12-1.21.82-1.21.82,0,0-7.95,9.4-12.78,13.2-5.06,3.98-11.87,5.91-18.83,5.91-5.31,0-8.82-1.06-13.13-3.29-4.31-2.24-7.95-5.34-10.94-9.32-2.98-3.98-5.3-8.62-6.96-13.92-1.62-5.19-2.44-14.03-2.47-19.86l22.24-4.09,39.72-6.68h0s6.73-1.14,6.73-1.14h0c.34-.06.53-.09.53-.09-.99-9.61-2.79-14.91-5.93-20.79ZM364.14,290.25l-18.58,3.48-12.96,2.17c-3.65,0-5.49-1.54-5.49-3.53,0-3.98,1.12-13.06,2.28-16.79,1.16-3.73,2.86-7.04,5.1-9.94,2.24-2.9,4.93-5.22,8.08-6.96,3.15-1.74,4.13-2.12,8.37-2.61,7.08-.81,12.55,2.36,16.28,7.08,3.73,4.72,5.84,10.24,6.34,16.53,0,6.82-2.46,9.29-9.41,10.57Z"/>
  <path class="st0" d="M493.42,289.75c.34-.06.53-.09.53-.09-.99-9.61-2.79-14.91-5.93-20.79-3.15-5.88-6.88-10.4-11.18-13.55-4.31-3.15-8.91-5.26-13.8-6.34-4.89-1.08-9.57-1.62-14.04-1.62-7.29,0-13.92,1.58-19.88,4.72-5.97,3.15-11.06,7.38-15.29,12.68-4.23,5.31-7.5,11.35-9.82,18.14-2.32,6.8-3.48,13.92-3.48,21.38s1.08,14.5,3.23,21.13c2.15,6.63,5.34,12.35,9.57,17.15,4.23,4.81,9.48,8.62,15.78,11.43,6.3,2.82,13.59,4.23,21.87,4.23,9.94,0,17.91-2.45,25.2-7.59,6.72-4.73,12.8-11.37,16.99-19.62l.1-.2c.08-.22.14-.45.14-.69,0-.6-.19-1.16-.62-1.55-.78-.52-1.19-.57-1.75-.44-.53.12-1.21.82-1.21.82,0,0-7.95,9.4-12.78,13.2-5.06,3.98-11.87,5.91-18.83,5.91-5.31,0-8.82-1.06-13.13-3.29-4.31-2.24-7.95-5.34-10.94-9.32-2.98-3.98-5.3-8.62-6.96-13.92-1.62-5.19-2.44-14.03-2.47-19.86l22.24-4.09,39.72-6.68h0s6.73-1.14,6.73-1.14h0ZM461.2,290.25l-18.58,3.48-12.96,2.17c-3.65,0-5.49-1.54-5.49-3.53,0-3.98,1.12-13.06,2.28-16.79,1.16-3.73,2.86-7.04,5.1-9.94,2.24-2.9,4.93-5.22,8.08-6.96,3.15-1.74,4.13-2.12,8.37-2.61,7.08-.81,12.55,2.36,16.28,7.08,3.73,4.72,5.84,10.24,6.34,16.53,0,6.82-2.46,9.29-9.41,10.57Z"/>
  <path class="st0" d="M282.72,298.34c-4.62-3.06-9.65-5.76-15.09-8.1-5.44-2.33-10.49-4.65-15.15-6.94-4.66-2.29-8.53-4.72-11.61-7.27-3.09-2.56-4.82-5.19-4.83-9.1-.01-5.97,2.32-9.12,6.9-11.78,3.89-2.27,9.36-2.6,14.36-1.91,13.06,1.79,25.97,10.14,33.03,28.08l2.17.11v-20.9c-4.14-3.48-5.46-4.57-10.8-7.77-6.9-4.45-15.78-6.75-23.22-7.13-6.24-.32-11.66.21-16.24,1.59-4.59,1.38-8.39,3.45-11.4,6.19-3.01,2.75-5.31,6.04-6.9,9.88-1.59,3.85-2.5,8.06-2.74,12.66-.24,4.6.61,10.77,2.77,14.38,2.16,3.61,4.95,6.78,8.37,9.52,3.42,2.74,7.16,5.11,11.23,7.11,4.07,2,7.89,3.7,11.47,5.07,4.6,1.78,8.59,3.48,11.99,5.1,3.39,1.63,6.22,3.31,8.47,5.04,2.25,1.74,3.88,3.79,4.89,6.14,1.01,2.36,1.8,5.19,1.26,8.38-1.72,10.18-9.18,13.21-22.33,13.41l-.71-.03c-14.63-.76-28.6-12.2-36.45-32.13l-2.45-.13v23.18c4.66,3.92,6.08,5.09,12.04,8.67,7.66,4.95,17.51,8.1,25.78,8.53l2.21.03c4.89-.43,9.76-.84,14.27-2.39,4.51-1.56,8.53-3.7,12.06-6.43,3.53-2.72,6.35-6.09,8.47-10.08,2.12-3.99,3.31-8.55,3.58-13.67.3-5.8-.96-12.5-3.96-16.59-3.01-4.09-6.81-7.66-11.43-10.73Z"/>
</svg>